<?xml version="1.0" encoding="iso-8859-1"?>
<!-- Uploaded to: SVG Repo, www.svgrepo.com, Generator: SVG Repo Mixer Tools -->
<svg version="1.1" id="Layer_1" xmlns="http://www.w3.org/2000/svg" xmlns:xlink="http://www.w3.org/1999/xlink" 
	 viewBox="0 0 512 512" xml:space="preserve">
<circle style="fill:#EFEFEF;" cx="256" cy="256" r="256"/>
<path style="fill:#3B3B3B;" d="M424.48,107.04H87.52C74.56,107.04,64,117.6,64,130.56v24.48v0.08v231.92h384V155.12v-0.08v-24.48
	C448,117.6,437.44,107.04,424.48,107.04z"/>
<g>
	<circle style="fill:#999999;" cx="97.12" cy="131.12" r="6.72"/>
	<circle style="fill:#999999;" cx="117.2" cy="131.12" r="6.72"/>
	<circle style="fill:#999999;" cx="137.28" cy="131.12" r="6.72"/>
</g>
<path style="fill:#FFFFFF;" d="M388.24,142.8H204.08c-6.48,0-11.76-5.28-11.76-11.76l0,0c0-6.48,5.28-11.76,11.76-11.76h184.16
	c6.48,0,11.76,5.28,11.76,11.76l0,0C400,137.52,394.72,142.8,388.24,142.8z"/>
<path style="fill:#00C454;" d="M335.84,274.24H153.36c-5.36,0-9.76-4.4-9.76-9.76v-52.16c0-5.36,4.4-9.76,9.76-9.76h182.48
	c5.36,0,9.76,4.4,9.76,9.76v52.16C345.6,269.84,341.2,274.24,335.84,274.24z"/>
<g>
	
		<rect x="339.489" y="287.994" transform="matrix(0.7071 -0.7071 0.7071 0.7071 -115.9448 336.3919)" style="fill:#FFFFFF;" width="17.2" height="40.32"/>
	<polygon style="fill:#FFFFFF;" points="314.96,312.72 307.12,267.76 352.08,275.52 	"/>
	<path style="fill:#FFFFFF;" d="M175.44,221.76l4.4,16.88c0.96,3.68,1.84,7.12,2.48,10.56h0.24c0.72-3.36,1.84-6.96,2.96-10.48
		l5.44-16.88H196l5.12,16.56c1.2,4,2.16,7.44,2.96,10.8h0.24c0.56-3.36,1.44-6.88,2.56-10.72l4.72-16.64h6l-10.72,33.12h-5.44
		l-5.04-15.84c-1.2-3.68-2.16-6.96-2.96-10.88h-0.16c-0.8,4-1.84,7.36-3.04,10.96l-5.36,15.76h-5.44l-10-33.12h6V221.76z"/>
	<path style="fill:#FFFFFF;" d="M226.72,221.76l4.4,16.88c0.96,3.68,1.84,7.12,2.48,10.56h0.24c0.72-3.36,1.84-6.96,2.96-10.48
		l5.44-16.88h5.04l5.12,16.56c1.2,4,2.16,7.44,2.96,10.8h0.24c0.56-3.36,1.44-6.88,2.56-10.72l4.72-16.64h6l-10.72,33.12h-5.44
		l-5.04-15.84c-1.2-3.68-2.16-6.96-2.96-10.88h-0.16c-0.8,4-1.84,7.36-3.04,10.96l-5.36,15.76h-5.44l-10-33.12h6V221.76z"/>
	<path style="fill:#FFFFFF;" d="M277.92,221.76l4.4,16.88c0.96,3.68,1.84,7.12,2.48,10.56h0.24c0.72-3.36,1.84-6.96,2.96-10.48
		l5.44-16.88h5.04l5.12,16.56c1.2,4,2.16,7.44,2.96,10.8h0.24c0.56-3.36,1.44-6.88,2.56-10.72l4.72-16.64h6l-10.72,33.12h-5.44
		l-5.04-15.84c-1.2-3.68-2.16-6.96-2.96-10.88h-0.16c-0.8,4-1.84,7.36-3.04,10.96l-5.36,15.76h-5.44l-10-33.12h6V221.76z"/>
</g>
</svg>